<?xml version="1.0" encoding="utf-8"?>
<!-- Generator: Adobe Illustrator 24.3.0, SVG Export Plug-In . SVG Version: 6.00 Build 0)  -->
<svg version="1.1" id="Capa_1" xmlns="http://www.w3.org/2000/svg" xmlns:xlink="http://www.w3.org/1999/xlink" x="0px" y="0px"
	 viewBox="0 0 512.5 512.5" style="enable-background:new 0 0 512.5 512.5;" xml:space="preserve">
<style type="text/css">
	.st0{fill:#8E8E8E;}
</style>
<g>
	<g>
		<path class="st0" d="M481.3,377l-71.7-53.8c17.9-30.7,25.6-66.6,25.6-105c0-120.3-97.3-217.6-217.6-217.6S0,97.9,0,218.2
			s97.3,217.6,217.6,217.6c38.4,0,71.7-10.2,105-25.6l53.8,71.7c28.2,35.8,81.9,41,115.2,7.7C522.2,458.9,519.7,405.1,481.3,377z
			 M217.6,384.6c-92.2,0-166.4-74.2-166.4-166.4S125.4,51.8,217.6,51.8S384,126.1,384,218.2S309.8,384.6,217.6,384.6z"/>
	</g>
</g>
</svg>
